<svg width="99" height="69" viewBox="0 0 99 69" fill="none" xmlns="http://www.w3.org/2000/svg">
<g clip-path="url(#clip0)">
<path d="M96.8562 24.0579C96.8561 23.7106 96.7648 23.3694 96.5913 23.0686C96.4179 22.7678 96.1684 22.518 95.868 22.3443V16.7833H95.832V16.7635H91.5676L46.772 5.23859L0 18.4329V20.7413L22.3856 29.2022L21.0812 51.7445C32.9907 55.1403 42.3658 56.3719 49.7296 56.3149H49.8935H50.1179C71.7722 56.0215 75.7936 44.4931 75.7936 44.4931C74.6206 38.3826 74.7845 31.6027 74.9798 28.2104L94.5357 19.427L94.2578 17.76H94.5531V22.1069C94.1391 22.1769 93.7581 22.3772 93.4654 22.6786C93.1726 22.9801 92.9834 23.3671 92.9251 23.7835C92.8668 24.1999 92.9425 24.6241 93.1411 24.9945C93.3398 25.3649 93.6511 25.6624 94.03 25.8437L92.5767 29.3361C92.7286 29.5291 92.9335 29.6736 93.1662 29.7517L89.2831 40.2208C89.6994 40.555 90.1454 40.8504 90.6154 41.1032L91.2421 41.5211L91.2572 41.4175C92.3175 41.8831 93.6533 42.1765 94.8612 41.6038L95.189 41.5211L95.1367 41.4559C95.4037 41.2941 95.6487 41.0985 95.8657 40.8738L95.5367 29.6598L95.2553 25.9951C95.705 25.9079 96.1105 25.6671 96.4025 25.3138C96.6945 24.9605 96.8548 24.5166 96.8562 24.0579Z" fill="url(#paint0_linear)"/>
<path d="M75.0437 44.1299C75.0437 44.1299 67.9868 64.3661 21.7973 51.1962L23.0831 29.0335L58.6885 23.8938L74.4066 26.1418C74.4066 26.1418 73.4394 35.7785 75.0437 44.1299Z" fill="#77B02A"/>
<path opacity="0.15" d="M23.0773 29.0334V30.9601L49.7017 40.2755L73.1185 30.3186L73.4394 28.3908L49.7017 37.0636L23.0773 29.0334Z" fill="black"/>
<path opacity="0.15" d="M74.4381 26.1429L58.7199 23.895L58.2049 23.9695L73.4034 26.1441C73.4034 26.1441 72.4408 35.7796 74.0451 44.1311C74.0451 44.1311 70.0923 55.4686 48.7298 55.6479C70.9968 55.833 75.0787 44.1311 75.0787 44.1311C73.4755 35.7785 74.4381 26.1429 74.4381 26.1429Z" fill="black"/>
<path d="M94.6287 17.1488H93.3452V22.9485H94.6287V17.1488Z" fill="#77B02A"/>
<path opacity="0.1" d="M94.6287 17.1488H93.3452V22.9485H94.6287V17.1488Z" fill="black"/>
<path d="M88.2135 39.9716C88.2135 39.9716 92.0628 43.2196 94.6286 40.6142L94.3078 29.6935L92.3837 28.7296L88.2135 39.9716Z" fill="#77B02A"/>
<path opacity="0.1" d="M88.2135 39.9716C88.2135 39.9716 92.0628 43.2196 94.6286 40.6142L94.3078 29.6935L92.3837 28.7296L88.2135 39.9716Z" fill="#77B02A"/>
<path d="M1.26489 18.7553V21.0033L49.7017 39.3116L93.3266 19.7192L93.0069 17.7914L49.3808 37.0636L1.26489 18.7553Z" fill="#77B02A"/>
<path opacity="0.07" d="M1.26489 18.7553V21.0033L49.7017 39.3116L93.3266 19.7192L93.0069 17.7914L49.3808 37.0636L1.26489 18.7553Z" fill="black"/>
<path d="M47.7683 19.0592C49.5347 19.0592 50.9666 18.1283 50.9666 16.98C50.9666 15.8318 49.5347 14.9009 47.7683 14.9009C46.002 14.9009 44.5701 15.8318 44.5701 16.98C44.5701 18.1283 46.002 19.0592 47.7683 19.0592Z" fill="#6C63FF"/>
<path opacity="0.1" d="M47.7683 19.0592C49.5347 19.0592 50.9666 18.1283 50.9666 16.98C50.9666 15.8318 49.5347 14.9009 47.7683 14.9009C46.002 14.9009 44.5701 15.8318 44.5701 16.98C44.5701 18.1283 46.002 19.0592 47.7683 19.0592Z" fill="black"/>
<path d="M94.5926 17.1314H50.0051V18.0953H94.5926V17.1314Z" fill="#6C63FF"/>
<path opacity="0.1" d="M94.5926 17.1314H50.0051V18.0953H94.5926V17.1314Z" fill="black"/>
<path d="M93.666 26.1604C94.7287 26.1604 95.5901 25.2978 95.5901 24.2337C95.5901 23.1697 94.7287 22.3071 93.666 22.3071C92.6034 22.3071 91.7419 23.1697 91.7419 24.2337C91.7419 25.2978 92.6034 26.1604 93.666 26.1604Z" fill="#77B02A"/>
<path opacity="0.1" d="M93.666 26.1604C94.7287 26.1604 95.5901 25.2978 95.5901 24.2337C95.5901 23.1697 94.7287 22.3071 93.666 22.3071C92.6034 22.3071 91.7419 23.1697 91.7419 24.2337C91.7419 25.2978 92.6034 26.1604 93.666 26.1604Z" fill="black"/>
<path d="M91.4211 29.3722C91.4211 29.3722 92.0628 30.371 94.3078 29.6935L93.9869 25.5178H93.0243L91.4211 29.3722Z" fill="#77B02A"/>
<path opacity="0.1" d="M91.4211 29.3722C91.4211 29.3722 92.0628 30.371 94.3078 29.6935L93.9869 25.5178H93.0243L91.4211 29.3722Z" fill="black"/>
<path opacity="0.2" d="M89.1575 40.5968L90.4399 38.9903L90.119 41.2394L89.1575 40.5968Z" fill="white"/>
<path opacity="0.2" d="M92.686 39.6329V41.5607L93.9683 41.2394L92.686 39.6329Z" fill="white"/>
<path opacity="0.15" d="M28.2101 40.5968C28.2101 40.5968 37.8329 43.8086 43.6074 41.8773L28.2101 40.5968Z" fill="black"/>
<path opacity="0.15" d="M54.3823 42.84C54.3823 42.84 64.5061 43.4757 69.5947 40.1323L54.3823 42.84Z" fill="black"/>
<path opacity="0.15" d="M61.3322 50.4651C61.3322 50.4651 67.2184 48.2346 70.2353 45.9599L61.3322 50.4651Z" fill="black"/>
<path opacity="0.15" d="M25.6409 45.4151C25.6409 45.4151 35.9088 49.592 38.4758 47.9844L25.6409 45.4151Z" fill="black"/>
<path d="M4.53278 42.2326C5.35193 40.131 5.76094 38.3276 5.44632 38.2046C5.1317 38.0817 4.21259 39.6857 3.39343 41.7874C2.57428 43.889 2.16527 45.6924 2.47989 45.8154C2.79451 45.9384 3.71362 44.3343 4.53278 42.2326Z" fill="#E0E0E0"/>
<path d="M57.3682 62.9055C58.1873 60.8038 58.6778 59.0323 58.4637 58.9486C58.2495 58.8649 57.4119 60.5008 56.5927 62.6024C55.7736 64.7041 55.2831 66.4756 55.4972 66.5593C55.7113 66.643 56.549 65.0071 57.3682 62.9055Z" fill="#E0E0E0"/>
<path d="M29.2746 55.1467L27.2563 53.7587L22.6366 60.4943L24.6549 61.8822L29.2746 55.1467Z" fill="#F55F44"/>
<path opacity="0.05" d="M25.5424 62.3095L28.2687 62.7009L29.4269 54.6126L26.7006 54.2212L25.5424 62.3095Z" fill="black"/>
<path d="M25.6936 62.4296L28.1176 62.7729L29.26 54.6835L26.8361 54.3403L25.6936 62.4296Z" fill="#F55F44"/>
<path d="M5.51921 38.0135L2.40399 46.006L55.4256 66.7271L58.5408 58.7346L5.51921 38.0135Z" fill="url(#paint1_linear)"/>
<path d="M55.5007 66.5418C54.4649 66.153 1.71949 45.521 2.47982 45.8202C4.90498 41.2801 5.44674 38.2091 5.44674 38.2091L58.4676 58.9307C58.4676 58.9307 56.9621 62.2229 55.5007 66.5418Z" fill="#F5F5F5"/>
<path opacity="0.05" d="M33.1769 48.6968L28.8131 47.0053L25.8754 54.6044L30.2392 56.2959L33.1769 48.6968Z" fill="black"/>
<path d="M32.8155 48.9018L28.8246 47.3421L25.8577 54.954L29.8487 56.5136L32.8155 48.9018Z" fill="#F55F44"/>
<path opacity="0.05" d="M32.0555 48.6051L29.3945 47.5652L26.4277 55.177L29.0887 56.217L32.0555 48.6051Z" fill="black"/>
<path d="M31.866 48.531L29.5851 47.6397L26.6183 55.2515L28.8991 56.1429L31.866 48.531Z" fill="#F55F44"/>
<path d="M36.9108 65.9903C37.0989 65.9875 37.2491 65.8325 37.2462 65.6441C37.2434 65.4558 37.0886 65.3054 36.9005 65.3082C36.7124 65.311 36.5622 65.466 36.565 65.6544C36.5679 65.8427 36.7227 65.9932 36.9108 65.9903Z" fill="#DBDBDB"/>
<g opacity="0.5">
<path opacity="0.5" d="M10.2947 56.1112H9.94592V58.0902H10.2947V56.1112Z" fill="#47E6B1"/>
<path opacity="0.5" d="M11.1085 57.2753V56.9261H9.13213V57.2753H11.1085Z" fill="#47E6B1"/>
</g>
<g opacity="0.5">
<path opacity="0.5" d="M98.1861 31.4316H97.8373V33.4106H98.1861V31.4316Z" fill="#47E6B1"/>
<path opacity="0.5" d="M98.9999 32.5957V32.2465H97.0236V32.5957H98.9999Z" fill="#47E6B1"/>
</g>
<g opacity="0.5">
<path opacity="0.5" d="M12.3874 6.86838H12.0386V8.8474H12.3874V6.86838Z" fill="#47E6B1"/>
<path opacity="0.5" d="M13.2012 8.0325V7.68326H11.2248V8.0325H13.2012Z" fill="#47E6B1"/>
</g>
<g opacity="0.5">
<path opacity="0.5" d="M87.7229 3.84164H87.3741V5.82067H87.7229V3.84164Z" fill="#47E6B1"/>
<path opacity="0.5" d="M88.5367 5.00577V4.65652H86.5603V5.00577H88.5367Z" fill="#47E6B1"/>
</g>
<path opacity="0.5" d="M7.95792 29.5061C7.86276 29.4633 7.78656 29.3871 7.74371 29.2918C7.70087 29.1966 7.69436 29.0889 7.7254 28.9892C7.73037 28.9737 7.73349 28.9577 7.7347 28.9415C7.73767 28.8954 7.72569 28.8496 7.70056 28.8109C7.67542 28.7722 7.63847 28.7427 7.59521 28.7267C7.55195 28.7108 7.5047 28.7092 7.46049 28.7223C7.41628 28.7354 7.37749 28.7625 7.34989 28.7995C7.34053 28.8125 7.33273 28.8265 7.32663 28.8414C7.28389 28.9367 7.20777 29.013 7.11266 29.0559C7.01755 29.0988 6.91003 29.1053 6.81045 29.0742C6.79498 29.0692 6.77898 29.0661 6.76278 29.0649C6.71677 29.0619 6.67103 29.0739 6.63238 29.0991C6.59373 29.1242 6.56424 29.1612 6.5483 29.2046C6.53235 29.2479 6.53081 29.2952 6.5439 29.3395C6.55699 29.3837 6.58401 29.4226 6.62094 29.4502C6.63394 29.4596 6.64799 29.4674 6.6628 29.4735C6.75795 29.5163 6.83416 29.5925 6.877 29.6878C6.91984 29.783 6.92636 29.8906 6.89531 29.9904C6.89034 30.0059 6.88722 30.0219 6.88601 30.0381C6.88114 30.085 6.89187 30.1322 6.91652 30.1724C6.94117 30.2125 6.97837 30.2435 7.02235 30.2603C7.06634 30.2771 7.11464 30.279 7.15978 30.2655C7.20491 30.2521 7.24436 30.2241 7.27199 30.1859C7.28134 30.1729 7.28915 30.1589 7.29524 30.144C7.33798 30.0487 7.41411 29.9724 7.50922 29.9295C7.60433 29.8866 7.71184 29.8801 7.81143 29.9112C7.8269 29.9162 7.8429 29.9193 7.8591 29.9205C7.90511 29.9235 7.95084 29.9115 7.98949 29.8863C8.02814 29.8612 8.05764 29.8242 8.07358 29.7808C8.08953 29.7375 8.09107 29.6902 8.07798 29.6459C8.06489 29.6017 8.03786 29.5628 8.00093 29.5352C7.98788 29.5237 7.97343 29.5139 7.95792 29.5061Z" fill="#4D8AF0"/>
<path opacity="0.5" d="M27.9544 6.57268C27.8592 6.52988 27.783 6.45366 27.7402 6.35842C27.6973 6.26318 27.6908 6.15553 27.7219 6.05581C27.7268 6.04032 27.73 6.0243 27.7312 6.00808C27.7341 5.96201 27.7222 5.91621 27.697 5.87751C27.6719 5.83881 27.6349 5.80927 27.5917 5.79331C27.5484 5.77734 27.5012 5.7758 27.4569 5.78891C27.4127 5.80202 27.3739 5.82907 27.3463 5.86605C27.337 5.87907 27.3292 5.89313 27.3231 5.90796C27.2804 6.00325 27.2042 6.07955 27.1091 6.12245C27.014 6.16535 26.9065 6.17187 26.8069 6.14079C26.7914 6.13581 26.7754 6.13268 26.7592 6.13147C26.7132 6.1285 26.6675 6.1405 26.6288 6.16567C26.5902 6.19083 26.5607 6.22783 26.5448 6.27115C26.5288 6.31447 26.5273 6.36179 26.5404 6.40605C26.5535 6.45032 26.5805 6.48916 26.6174 6.5168C26.6304 6.52617 26.6444 6.53398 26.6593 6.54008C26.7544 6.58288 26.8306 6.65911 26.8735 6.75434C26.9163 6.84958 26.9228 6.95724 26.8918 7.05696C26.8868 7.07244 26.8837 7.08847 26.8825 7.10469C26.8776 7.15159 26.8883 7.19879 26.913 7.23896C26.9376 7.27914 26.9748 7.31005 27.0188 7.3269C27.0628 7.34374 27.1111 7.34559 27.1562 7.33214C27.2014 7.3187 27.2408 7.29071 27.2685 7.25253C27.2778 7.23952 27.2856 7.22545 27.2917 7.21062C27.3344 7.11534 27.4106 7.03904 27.5057 6.99614C27.6008 6.95323 27.7083 6.94671 27.8079 6.9778C27.8234 6.98278 27.8394 6.9859 27.8556 6.98711C27.9016 6.99008 27.9473 6.97809 27.986 6.95292C28.0246 6.92775 28.0541 6.89075 28.07 6.84743C28.086 6.80412 28.0875 6.7568 28.0744 6.71253C28.0613 6.66827 28.0343 6.62942 27.9974 6.60178C27.9843 6.5903 27.9699 6.58052 27.9544 6.57268Z" fill="#4D8AF0"/>
<path opacity="0.5" d="M33.186 67.3404C33.0908 67.2976 33.0146 67.2214 32.9718 67.1261C32.929 67.0309 32.9224 66.9232 32.9535 66.8235C32.9585 66.808 32.9616 66.792 32.9628 66.7758C32.9658 66.7297 32.9538 66.6839 32.9286 66.6452C32.9035 66.6065 32.8666 66.577 32.8233 66.561C32.78 66.545 32.7328 66.5435 32.6886 66.5566C32.6444 66.5697 32.6056 66.5968 32.578 66.6338C32.5686 66.6468 32.5608 66.6608 32.5547 66.6757C32.512 66.7709 32.4359 66.8473 32.3407 66.8902C32.2456 66.9331 32.1381 66.9396 32.0385 66.9085C32.0231 66.9035 32.0071 66.9004 31.9909 66.8992C31.9449 66.8962 31.8991 66.9082 31.8605 66.9334C31.8218 66.9585 31.7923 66.9955 31.7764 67.0389C31.7604 67.0822 31.7589 67.1295 31.772 67.1738C31.7851 67.218 31.8121 67.2569 31.849 67.2845C31.862 67.2939 31.8761 67.3017 31.8909 67.3078C31.986 67.3506 32.0622 67.4268 32.1051 67.5221C32.1479 67.6173 32.1544 67.7249 32.1234 67.8247C32.1184 67.8402 32.1153 67.8562 32.1141 67.8724C32.1092 67.9193 32.12 67.9665 32.1446 68.0067C32.1693 68.0469 32.2065 68.0778 32.2504 68.0946C32.2944 68.1115 32.3427 68.1133 32.3879 68.0999C32.433 68.0864 32.4724 68.0584 32.5001 68.0202C32.5094 68.0072 32.5172 67.9932 32.5233 67.9783C32.5661 67.8831 32.6422 67.8068 32.7373 67.7639C32.8324 67.7209 32.9399 67.7144 33.0395 67.7455C33.055 67.7505 33.071 67.7536 33.0872 67.7548C33.1332 67.7578 33.1789 67.7458 33.2176 67.7206C33.2562 67.6955 33.2857 67.6585 33.3017 67.6151C33.3176 67.5718 33.3192 67.5245 33.3061 67.4802C33.293 67.436 33.2659 67.3971 33.229 67.3695C33.216 67.358 33.2015 67.3482 33.186 67.3404Z" fill="#4D8AF0"/>
<path opacity="0.5" d="M94.8147 52.3859C95.1999 52.3859 95.5122 52.0732 95.5122 51.6875C95.5122 51.3017 95.1999 50.989 94.8147 50.989C94.4294 50.989 94.1171 51.3017 94.1171 51.6875C94.1171 52.0732 94.4294 52.3859 94.8147 52.3859Z" fill="#F55F44"/>
<path opacity="0.5" d="M64.1224 67.5197C64.5077 67.5197 64.82 67.2069 64.82 66.8212C64.82 66.4354 64.5077 66.1227 64.1224 66.1227C63.7372 66.1227 63.4249 66.4354 63.4249 66.8212C63.4249 67.2069 63.7372 67.5197 64.1224 67.5197Z" fill="#77B02A"/>
<path opacity="0.5" d="M75.9808 54.5978C76.3661 54.5978 76.6784 54.2851 76.6784 53.8993C76.6784 53.5136 76.3661 53.2008 75.9808 53.2008C75.5956 53.2008 75.2833 53.5136 75.2833 53.8993C75.2833 54.2851 75.5956 54.5978 75.9808 54.5978Z" fill="#47E6B1"/>
<path opacity="0.5" d="M54.3567 1.39696C54.7419 1.39696 55.0542 1.08424 55.0542 0.698479C55.0542 0.31272 54.7419 0 54.3567 0C53.9714 0 53.6591 0.31272 53.6591 0.698479C53.6591 1.08424 53.9714 1.39696 54.3567 1.39696Z" fill="#F55F44"/>
<path d="M3.86169 19.1677L52.2101 37.9416L95.6037 18.2038L49.4118 6.31915L3.86169 19.1677Z" fill="#77B02A"/>
</g>
<defs>
<linearGradient id="paint0_linear" x1="48.4287" y1="56.3161" x2="48.4287" y2="5.23975" gradientUnits="userSpaceOnUse">
<stop stop-color="#808080" stop-opacity="0.25"/>
<stop offset="0.54" stop-color="#808080" stop-opacity="0.12"/>
<stop offset="1" stop-color="#808080" stop-opacity="0.1"/>
</linearGradient>
<linearGradient id="paint1_linear" x1="-62780.8" y1="147058" x2="-61252.2" y2="143147" gradientUnits="userSpaceOnUse">
<stop stop-color="#808080" stop-opacity="0.25"/>
<stop offset="0.54" stop-color="#808080" stop-opacity="0.12"/>
<stop offset="1" stop-color="#808080" stop-opacity="0.1"/>
</linearGradient>
<clipPath id="clip0">
<rect width="99" height="68.1064" fill="white"/>
</clipPath>
</defs>
</svg>
