<svg width="17" height="22" viewBox="0 0 17 22" fill="none" xmlns="http://www.w3.org/2000/svg">
<path d="M14.875 7.33333H13.8125V5.2381C13.8125 2.34667 11.4325 0 8.5 0C5.5675 0 3.1875 2.34667 3.1875 5.2381V7.33333H2.125C0.95625 7.33333 0 8.27619 0 9.42857V19.9048C0 21.0571 0.95625 22 2.125 22H14.875C16.0438 22 17 21.0571 17 19.9048V9.42857C17 8.27619 16.0438 7.33333 14.875 7.33333ZM8.5 16.7619C7.33125 16.7619 6.375 15.819 6.375 14.6667C6.375 13.5143 7.33125 12.5714 8.5 12.5714C9.66875 12.5714 10.625 13.5143 10.625 14.6667C10.625 15.819 9.66875 16.7619 8.5 16.7619ZM11.7938 7.33333H5.20625V5.2381C5.20625 3.44667 6.68313 1.99048 8.5 1.99048C10.3169 1.99048 11.7938 3.44667 11.7938 5.2381V7.33333Z" fill="#77B02A"/>
</svg>
